HIERARCHY
ROOT hip
{
  OFFSET 0 0 0
  CHANNELS 6 Xposition Yposition Zposition Zrotation Yrotation Xrotation
  JOINT abdomen
  {
    OFFSET 0 20.6881 -0.73152
    CHANNELS 3 Zrotation Xrotation Yrotation
    JOINT chest
    {
      OFFSET 0 11.7043 -0.48768
      CHANNELS 3 Zrotation Xrotation Yrotation
      JOINT neck
      {
        OFFSET 0 22.1894 -2.19456
        CHANNELS 3 Zrotation Xrotation Yrotation
        JOINT head
        {
          OFFSET -0.24384 7.07133 1.2192
          CHANNELS 3 Zrotation Xrotation Yrotation
          JOINT leftEye
          {
            OFFSET 4.14528 8.04674 8.04672
            CHANNELS 3 Zrotation Xrotation Yrotation
            End Site
            {
              OFFSET 1 0 0
            }
          }
          JOINT rightEye
          {
            OFFSET -3.6576 8.04674 8.04672
            CHANNELS 3 Zrotation Xrotation Yrotation
            End Site
            {
              OFFSET 1 0 0
            }
          }
        }
      }
      JOINT rCollar
      {
        OFFSET -2.68224 19.2634 -4.8768
        CHANNELS 3 Zrotation Xrotation Yrotation
        JOINT rShldr
        {
          OFFSET -8.77824 -1.95073 1.46304
          CHANNELS 3 Zrotation Xrotation Yrotation
          JOINT rForeArm
          {
            OFFSET -28.1742 -1.7115 0.48768
            CHANNELS 3 Zrotation Xrotation Yrotation
            JOINT rHand
            {
              OFFSET -22.5879 0.773209 7.07136
              CHANNELS 3 Zrotation Xrotation Yrotation
              JOINT rThumb1
              {
                OFFSET -1.2192 -0.487915 3.41376
                CHANNELS 3 Zrotation Xrotation Yrotation
                JOINT rThumb2
                {
                  OFFSET -3.37035 -0.52449 3.41376
                  CHANNELS 3 Zrotation Xrotation Yrotation
                  End Site
                  {
                    OFFSET -1.78271 -1.18214 1.43049
                  }
                }
              }
              JOINT rIndex1
              {
                OFFSET -7.75947 0.938293 5.60832
                CHANNELS 3 Zrotation Xrotation Yrotation
                JOINT rIndex2
                {
                  OFFSET -2.54057 -0.884171 1.56538
                  CHANNELS 3 Zrotation Xrotation Yrotation
                  End Site
                  {
                    OFFSET -1.62519 -0.234802 1.16502
                  }
                }
              }
              JOINT rMid1
              {
                OFFSET -8.24714 1.18213 3.41376
                CHANNELS 3 Zrotation Xrotation Yrotation
                JOINT rMid2
                {
                  OFFSET -3.10165 -0.590103 1.0647
                  CHANNELS 3 Zrotation Xrotation Yrotation
                  End Site
                  {
                    OFFSET -2.48547 -0.328903 0.83742
                  }
                }
              }
              JOINT rRing1
              {
                OFFSET -8.82822 0.546677 1.51678
                CHANNELS 3 Zrotation Xrotation Yrotation
                JOINT rRing2
                {
                  OFFSET -2.60934 -0.819778 -0.0198488
                  CHANNELS 3 Zrotation Xrotation Yrotation
                  End Site
                  {
                    OFFSET -2.33842 -0.294052 0.168128
                  }
                }
              }
              JOINT rPinky1
              {
                OFFSET -8.27202 -0.0477905 -0.4584
                CHANNELS 3 Zrotation Xrotation Yrotation
                JOINT rPinky2
                {
                  OFFSET -1.82734 -0.647385 -0.700984
                  CHANNELS 3 Zrotation Xrotation Yrotation
                  End Site
                  {
                    OFFSET -1.69225 -0.51767 -0.607171
                  }
                }
              }
            }
          }
        }
      }
      JOINT lCollar
      {
        OFFSET 2.68224 19.2634 -4.8768
        CHANNELS 3 Zrotation Xrotation Yrotation
        JOINT lShldr
        {
          OFFSET 8.77824 -1.95073 1.46304
          CHANNELS 3 Zrotation Xrotation Yrotation
          JOINT lForeArm
          {
            OFFSET 28.1742 -1.7115 0.48768
            CHANNELS 3 Zrotation Xrotation Yrotation
            JOINT lHand
            {
              OFFSET 22.5879 0.773209 7.07136
              CHANNELS 3 Zrotation Xrotation Yrotation
              JOINT lThumb1
              {
                OFFSET 1.2192 -0.487915 3.41376
                CHANNELS 3 Zrotation Xrotation Yrotation
                JOINT lThumb2
                {
                  OFFSET 3.37035 -0.52449 3.41376
                  CHANNELS 3 Zrotation Xrotation Yrotation
                  End Site
                  {
                    OFFSET 1.78271 -1.18214 1.43049
                  }
                }
              }
              JOINT lIndex1
              {
                OFFSET 7.75947 0.938293 5.60832
                CHANNELS 3 Zrotation Xrotation Yrotation
                JOINT lIndex2
                {
                  OFFSET 2.54057 -0.884171 1.56538
                  CHANNELS 3 Zrotation Xrotation Yrotation
                  End Site
                  {
                    OFFSET 1.62519 -0.234802 1.16502
                  }
                }
              }
              JOINT lMid1
              {
                OFFSET 8.24714 1.18213 3.41376
                CHANNELS 3 Zrotation Xrotation Yrotation
                JOINT lMid2
                {
                  OFFSET 3.10165 -0.590103 1.0647
                  CHANNELS 3 Zrotation Xrotation Yrotation
                  End Site
                  {
                    OFFSET 2.48547 -0.328903 0.83742
                  }
                }
              }
              JOINT lRing1
              {
                OFFSET 8.82822 0.546677 1.51678
                CHANNELS 3 Zrotation Xrotation Yrotation
                JOINT lRing2
                {
                  OFFSET 2.60934 -0.819778 -0.0198488
                  CHANNELS 3 Zrotation Xrotation Yrotation
                  End Site
                  {
                    OFFSET 2.33842 -0.294052 0.168128
                  }
                }
              }
              JOINT lPinky1
              {
                OFFSET 8.27202 -0.0477905 -0.4584
                CHANNELS 3 Zrotation Xrotation Yrotation
                JOINT lPinky2
                {
                  OFFSET 1.82734 -0.647385 -0.700984
                  CHANNELS 3 Zrotation Xrotation Yrotation
                  End Site
                  {
                    OFFSET 1.69225 -0.51767 -0.607171
                  }
                }
              }
            }
          }
        }
      }
    }
  }
  JOINT rButtock
  {
    OFFSET -8.77824 4.35084 1.2192
    CHANNELS 3 Zrotation Xrotation Yrotation
    JOINT rThigh
    {
      OFFSET 0 -1.70687 -2.19456
      CHANNELS 3 Zrotation Xrotation Yrotation
      JOINT rShin
      {
        OFFSET 0 -36.8199 0.73152
        CHANNELS 3 Zrotation Xrotation Yrotation
        JOINT rFoot
        {
          OFFSET 0.73152 -45.1104 -5.12064
          CHANNELS 3 Zrotation Xrotation Yrotation
          End Site
          {
            OFFSET -1.1221 -3.69964 12.103
          }
        }
      }
    }
  }
  JOINT lButtock
  {
    OFFSET 8.77824 4.35084 1.2192
    CHANNELS 3 Zrotation Xrotation Yrotation
    JOINT lThigh
    {
      OFFSET 0 -1.70687 -2.19456
      CHANNELS 3 Zrotation Xrotation Yrotation
      JOINT lShin
      {
        OFFSET 0 -36.8199 0.73152
        CHANNELS 3 Zrotation Xrotation Yrotation
        JOINT lFoot
        {
          OFFSET -0.73152 -45.1104 -5.12064
          CHANNELS 3 Zrotation Xrotation Yrotation
          End Site
          {
            OFFSET 1.1221 -3.69964 12.103
          }
        }
      }
    }
  }
}
MOTION
Frames: 4
Frame Time: 0.00833333
-2.24146 84.9792 -5.34256 0.0 0.0 0.0 -0.0369909 -0.000394258 -0.0010626 -0.0102116 -0.000642373 -0.001769 -1.2928e-16 0.0 -9.31803e-18 -3.94463e-16 3.18055e-15 -2.95071e-17 -0.0 0.0 0.0 -0.0 0.0 0.0 4.83623e-17 -1.55301e-18 1.98785e-16 3.75633e-16 -3.97569e-16 5.96354e-16 -2.40529e-14 2.18663e-15 -2.54444e-14 -2.6639e-13 -2.43263e-14 -1.59028e-14 -6.31978e-13 -4.61551e-14 -4.45278e-14 -1.10206e-12 -7.95139e-14 -9.06458e-14 -6.24581e-13 -4.49253e-14 -6.36111e-14 7.73091 5.47488 0.417314 -6.32483e-13 -4.60186e-14 -4.77083e-14 2.90554 0.965183 0.102902 -6.2537e-13 -4.62174e-14 -4.85035e-14 10.2786 0.731801 0.0259123 -6.41876e-13 -4.45278e-14 -3.49861e-14 2.22167 -0.733487 -0.20892 -1.47759e-16 -1.55301e-18 -1.98785e-16 -2.75872e-15 -2.17421e-16 -9.93923e-16 -2.03257e-14 -1.15295e-14 6.36111e-15 -2.71968e-13 -8.12532e-15 -1.90833e-14 -6.32213e-13 -4.31726e-14 -4.13472e-14 -1.08258e-12 -7.31528e-14 -7.07673e-14 -6.36509e-13 -4.29375e-14 -3.18055e-14 -7.73091 5.47488 -0.417314 -6.31936e-13 -4.34345e-14 -4.77083e-14 -2.90554 0.965183 -0.102902 -6.39869e-13 -4.33351e-14 -4.69132e-14 -10.2786 0.731801 -0.0259123 -6.24979e-13 -4.09496e-14 -5.725e-14 -2.22167 -0.733487 0.20892 -2.03217e-16 0.0 -3.88251e-19 0.452256 -3.0226 -0.0389968 -0.00587881 -0.0777578 -0.0517932 -0.480055 3.09965 0.117406 2.03217e-16 0.0 3.88251e-19 -0.508678 -3.174 0.0425363 0.00543373 0.196478 0.0478048 0.480629 2.97682 -0.114999 
-4.548414398257623 82.77230039825761 -6.724932153080273 -4.575716639701307 -20.148296639701307 6.012296141879277 -10.917976901057871 23.58453514623522 -15.088205849408837 0.8426196827629121 -0.2709192092097075 -4.834060341008089 -5.984459127566894 14.661015096453017 13.24790715619166 10.666697797137523 -16.161317635345362 27.15861293092719 -0.0 0.0 0.0 -0.0 0.0 0.0 -1.8345666484131922e-13 5.0475899772246425e-14 3.0413680323584314e-13 -7.643072573739888 16.149614187927817 42.1957791910392 -28.236300286247666 -31.32766155569384 76.62925044181705 -11.861641605476041 -64.92573909147481 -17.998941854387052 -1.6578152694461728e-09 1.0876309016801494e-08 -1.9253644455507157e-10 -2.8421619514623518e-09 1.8669996589919107e-08 -4.0982833851897945e-10 -1.657805269446173e-09 1.0876309016801494e-08 -1.9254744467952703e-10 7.73091 5.47488 0.417314 -1.657805270690728e-09 1.0876309016801494e-08 -1.9254644430616055e-10 2.90554 0.965183 0.102902 -1.6578052682016178e-09 1.0876309018046049e-08 -1.9253844480398253e-10 10.2786 0.731801 0.0259123 -1.6578152682016177e-09 1.0876309015556938e-08 -1.9253044480398257e-10 2.2216699999999996 -0.733487 -0.20892 -1.8348667069072806e-13 5.0494101341630365e-14 3.040707985065339e-13 6.935080333540759 26.10673213441195 -108.07601132545113 26.513101692594898 -23.748785189794646 -62.006151673926574 4.354774291225887 -48.43830271313006 9.25821288861232 1.7970499296826385e-09 -2.2670485513378966e-10 1.5198206757934038e-10 3.0877936029869323e-09 -4.010355620410703e-10 3.239539415059116e-10 1.797039930304916e-09 -2.2670385525824518e-10 1.5199006770379587e-10 -7.73091 5.47488 -0.417314 1.797049929807094e-09 -2.2670385525824518e-10 1.5198406745488487e-10 -2.90554 0.965183 -0.102902 1.7970399294337274e-09 -2.2670385525824518e-10 1.519810678282514e-10 -10.2786 0.731801 -0.0259123 1.7970599294337271e-09 -2.2670185525824516e-10 1.5197306782825138e-10 -2.2216699999999996 -0.733487 0.20892 -2.0321699999999997e-16 0.0 -3.88251e-19 10.369332134411948 -32.010918755444926 8.28698372246422 -0.3403549178593653 40.188537448662096 0.679235017672682 -1.4737440298693216 -12.710010528935905 -3.272541778469197 2.0321699999999997e-16 0.0 3.88251e-19 16.839550840074676 -28.406420286247666 19.500032930927194 0.5489582348475419 48.261456415681394 -1.0774722364654634 8.433264925948974 -21.817121667703795 16.997597859365275 
-4.507853245799628 82.77090054760423 -6.661011854387057 -4.524808089607965 -19.973615233354078 6.106599925326695 -11.15360014934661 22.039097535780957 -14.43908591163659 0.9882855991288115 -0.13070805314250156 -4.677086109520846 -5.413033158680772 13.798000199128813 12.588396067205974 9.863103788425638 -15.531181804604856 25.842890118232734 -0.0 0.0 0.0 -0.0 0.0 0.0 -3.2514801057871813e-13 1.7081529035469822e-13 6.498678901057873e-13 -6.891064925948973 15.514001966397013 38.756409110143125 -28.3392999253267 -33.34079825762291 72.62419678904791 -9.028118304915992 -61.624096988176724 -15.08119808338519 -2.889916583696329e-09 1.8229132881144992e-08 -1.1378798449284382e-09 -4.911837987554449e-09 3.101604038581207e-08 -2.0903096901057874e-09 -2.889906583696329e-09 1.8229132881144992e-08 -1.1378798469197262e-09 7.73091 5.47488 0.417314 -2.889916583696329e-09 1.8229132881144992e-08 -1.1378798469197262e-09 2.90554 0.9651830000000001 0.102902 -2.889906586185439e-09 1.8229132881144992e-08 -1.1378798446795271e-09 10.2786 0.731801 0.0259123 -2.889916586185439e-09 1.8229132881144992e-08 -1.1378698451773491e-09 2.2216700000000005 -0.733487 -0.20892 -3.2527499564405725e-13 1.7084328736776602e-13 6.495719135034225e-13 4.780572497822029 19.37357528313628 -105.22899850653391 26.40939576851276 -24.53378815183572 -58.53548098319851 3.665357505911637 -46.50298840074673 8.517766540136902 2.8636839041692597e-09 -2.544224250155569e-10 4.3625036365899195e-10 4.914600165525825e-09 -4.2219567691350343e-10 8.477434369632856e-10 2.86367390665837e-09 -2.5442142501555697e-10 4.3625836166770384e-10 -7.73091 5.47488 -0.417314 2.8636839041692597e-09 -2.544224250155569e-10 4.3625636216552583e-10 -2.90554 0.9651830000000001 -0.102902 2.86367390416926e-09 -2.544224250155569e-10 4.362523631611699e-10 -10.2786 0.731801 -0.0259123 2.86368390665837e-09 -2.544224247666459e-10 4.3623936390790296e-10 -2.2216700000000005 -0.733487 0.20892 -2.03217e-16 0.0 -3.88251e-19 9.164341500933416 -30.468400024891103 7.509377029247044 -0.2861648917237088 37.88249340385813 0.6155839325451151 -1.367466296204107 -11.914994573739888 -3.0464882414436842 2.03217e-16 0.0 3.88251e-19 14.789902339763534 -27.168992408214063 17.707316826384567 0.4389897583074051 45.30329173615433 -0.9558168991910393 7.587409000622277 -20.46239950217797 15.979519091474797 
-4.48047016428127 82.73320608587429 -6.603105249533292 -4.5621854013690095 -19.440852831362786 5.9511177349097695 -10.6793434598631 22.12599163658992 -14.236631624144367 -0.3574422333540759 -0.015252746546359676 -4.601930738021157 -4.8561230989421285 13.722901456129433 12.322131736154326 10.681956614810206 -15.678090068450528 25.488153130056006 -0.0 0.0 0.0 -0.0 0.0 0.0 -2.2265589645301804e-13 6.042199481020535e-14 4.071778425637834e-13 -5.53605800995644 15.785360199128812 38.937271026757934 -28.32920089607965 -33.22781026757934 72.445616316117 -9.436405586807714 -62.32494227753578 -15.543761132545114 -1.444572903546982e-09 9.057015584318606e-09 -1.298839478531425e-09 -2.4159445774735534e-09 1.5157894163036715e-08 -2.296356851275669e-09 -1.4445629072806472e-09 9.057015584318606e-09 -1.2988494785314249e-09 7.73091 5.47488 0.417314 -1.4445629072806472e-09 9.057005588052271e-09 -1.2988494785314249e-09 2.90554 0.965183 0.102902 -1.444562903546982e-09 9.057015584318606e-09 -1.2988494785314249e-09 10.2786 0.731801 0.0259123 -1.444582903546982e-09 9.057015584318606e-09 -1.2988494747977597e-09 2.22167 -0.733487 -0.20892 -2.2265090690728066e-13 6.045789705040448e-14 4.069788313627878e-13 5.972566202862477 19.960431449906658 -105.09302314872434 26.51559167392657 -24.836575955196018 -59.02086143123833 3.8086837921593033 -47.15072741754822 8.714357814561295 1.0742353005600496e-09 3.4656796652146854e-11 1.6216617940261356e-10 1.8422592022401992e-09 1.0319456141879278e-10 3.136698154324828e-10 1.0742253005600497e-09 3.465799680149347e-11 1.6218117932794027e-10 -7.73091 5.47488 -0.417314 1.0742353005600496e-09 3.465699668948351e-11 1.6217517936527693e-10 -2.90554 0.965183 -0.102902 1.0742352968263844e-09 3.465699672682016e-11 1.6217017902924704e-10 -10.2786 0.731801 -0.0259123 1.0742353005600496e-09 3.465999642812694e-11 1.62166178282514e-10 -2.22167 -0.733487 0.20892 -2.03217e-16 0.0 -3.88251e-19 9.12113056378345 -30.422605488487868 7.303949097697573 -0.2910145676415682 38.161574984443064 0.6246420923459862 -1.4731274847542002 -12.09858472930927 -3.3803393739887992 2.03217e-16 0.0 3.88251e-19 14.890286334785314 -27.291187753578097 17.59040989421282 0.447612243932794 45.60257390168015 -0.9611675519601742 7.3564599825762285 -20.463403995021782 15.469942451773493 
